<svg width="31" height="32" viewBox="0 0 31 32" fill="none" xmlns="http://www.w3.org/2000/svg">
<g clip-path="url(#clip0_123_54)">
<path d="M13.6472 11.0111L15.4148 8.90451C15.8017 8.44344 16.2737 8.06143 16.8037 7.78029C17.3338 7.49916 17.9116 7.32441 18.5041 7.26602C19.0967 7.20763 19.6923 7.26675 20.2571 7.43999C20.8219 7.61323 21.3448 7.89721 21.7959 8.27571C22.2469 8.65421 22.6174 9.11982 22.8861 9.64595C23.1548 10.1721 23.3164 10.7484 23.3618 11.3421C23.4072 11.9358 23.3354 12.5351 23.1506 13.106C22.9658 13.6768 22.6716 14.2079 22.2847 14.669L20.517 16.7756M16.9817 20.9888L15.214 23.0955C14.8271 23.5565 14.3552 23.9386 13.8251 24.2197C13.295 24.5008 12.7173 24.6756 12.1247 24.734C10.9281 24.8519 9.74398 24.4887 8.83298 23.7243C7.92199 22.9599 7.3587 21.8568 7.26703 20.6579C7.17536 19.4589 7.56282 18.2622 8.34418 17.331L10.1118 15.2244M12.9575 18.8088L17.6713 13.1912" stroke="#F5F5F5" stroke-width="4" stroke-linecap="round" stroke-linejoin="round"/>
</g>
<defs>
<clipPath id="clip0_123_54">
<rect width="22" height="21.523" fill="white" transform="translate(0 17.509) rotate(-50)"/>
</clipPath>
</defs>
</svg>