<svg width="191" height="209" viewBox="0 0 191 209" fill="none" xmlns="http://www.w3.org/2000/svg">
<path d="M79.1103 169.653H111.816C117.069 169.653 121.338 164.998 121.338 159.293C121.338 153.589 117.069 148.934 111.816 148.934H79.1103C73.8576 148.934 69.5883 153.589 69.5883 159.293C69.5883 164.998 73.8576 169.653 79.1103 169.653ZM59.8851 59.1526C52.1648 59.1526 44.7608 62.4269 39.3017 68.2552C33.8426 74.0834 30.7758 81.9883 30.7758 90.2307C30.7758 98.4731 33.8426 106.378 39.3017 112.206C44.7608 118.035 52.1648 121.309 59.8851 121.309H131.041C138.762 121.309 146.166 118.035 151.625 112.206C157.084 106.378 160.151 98.4731 160.151 90.2307C160.151 81.9883 157.084 74.0834 151.625 68.2552C146.166 62.4269 138.762 59.1526 131.041 59.1526H59.8851ZM64.7367 72.9651C69.2001 72.9651 72.8226 76.8326 72.8226 81.5979V98.8635C72.8226 101.153 71.9707 103.349 70.4543 104.968C68.9379 106.587 66.8812 107.496 64.7367 107.496C62.5922 107.496 60.5355 106.587 59.0191 104.968C57.5027 103.349 56.6508 101.153 56.6508 98.8635V81.5979C56.6508 76.8326 60.2733 72.9651 64.7367 72.9651ZM118.104 81.5979C118.104 79.3083 118.956 77.1125 120.472 75.4936C121.989 73.8746 124.045 72.9651 126.19 72.9651C128.334 72.9651 130.391 73.8746 131.907 75.4936C133.424 77.1125 134.276 79.3083 134.276 81.5979V98.8635C134.276 101.153 133.424 103.349 131.907 104.968C130.391 106.587 128.334 107.496 126.19 107.496C124.045 107.496 121.989 106.587 120.472 104.968C118.956 103.349 118.104 101.153 118.104 98.8635V81.5979Z" fill="black"/>
<g filter="url(#filter0_d_114_1376)">
<path d="M17.7133 20.2789C19.8713 19.4643 21.6901 17.8614 22.8483 15.7536C24.0064 13.6458 24.4293 11.1687 24.0423 8.76017C23.6552 6.35163 22.4831 4.16672 20.7331 2.59161C18.9831 1.01649 16.7678 0.152588 14.4789 0.152588C12.19 0.152588 9.97474 1.01649 8.22472 2.59161C6.4747 4.16672 5.30258 6.35163 4.91552 8.76017C4.52845 11.1687 4.95137 13.6458 6.10953 15.7536C7.26769 17.8614 9.08651 19.4643 11.2445 20.2789V71.0743C9.28162 72.2843 7.65089 74.0235 6.51562 76.118C5.38034 78.2124 4.78037 80.5885 4.77578 83.0083V131.38C4.77578 136.463 7.38268 140.924 11.2445 143.321V152.43C11.2403 158.734 12.4002 164.978 14.6581 170.804C16.9159 176.629 20.2273 181.922 24.4029 186.38C28.5784 190.838 33.5362 194.373 38.9927 196.784C44.4492 199.195 50.2972 200.433 56.2023 200.428H134.474C140.374 200.435 146.218 199.2 151.671 196.794C157.124 194.389 162.08 190.86 166.255 186.409C170.43 181.958 173.742 176.672 176.003 170.854C178.264 165.035 179.429 158.798 179.432 152.499V142.899C183.294 140.503 185.901 136.035 185.901 130.952V82.5387C185.901 77.4557 183.294 72.9874 179.432 70.5909V20.9902C181.68 20.1723 183.583 18.5289 184.802 16.3528C186.022 14.1767 186.478 11.6092 186.089 9.10767C185.701 6.60613 184.494 4.33296 182.682 2.69308C180.871 1.0532 178.573 0.153095 176.198 0.153095C173.823 0.153095 171.525 1.0532 169.713 2.69308C167.902 4.33296 166.694 6.60613 166.306 9.10767C165.918 11.6092 166.374 14.1767 167.593 16.3528C168.812 18.5289 170.715 20.1723 172.963 20.9902V44.4438C168.935 37.2556 163.229 31.3051 156.404 27.1728C149.579 23.0405 141.868 20.8675 134.021 20.8659H127.132C127.65 19.303 127.808 17.6302 127.595 15.9882C127.381 14.3462 126.802 12.7829 125.905 11.4296C125.008 10.0763 123.82 8.97251 122.441 8.21102C121.062 7.44952 119.532 7.05254 117.979 7.05341H72.6976C71.1449 7.05254 69.6146 7.44952 68.2354 8.21102C66.8562 8.97251 65.6683 10.0763 64.7715 11.4296C63.8747 12.7829 63.2951 14.3462 63.0816 15.9882C62.8681 17.6302 63.0268 19.303 63.5444 20.8659H56.7198C40.1598 20.8659 25.6698 30.3206 17.7133 44.4438V20.2789ZM24.182 69.4168C24.182 60.2036 27.6101 51.3678 33.7121 44.8531C39.8142 38.3383 48.0903 34.6784 56.7198 34.6784H134.021C142.641 34.693 150.902 38.3599 156.991 44.8734C163.08 51.3869 166.498 60.2145 166.495 69.4168V152.499C166.492 156.984 165.662 161.425 164.051 165.568C162.44 169.71 160.08 173.473 157.106 176.642C154.133 179.81 150.603 182.322 146.72 184.033C142.837 185.745 138.675 186.622 134.474 186.616H56.2023C51.9962 186.62 47.8305 185.739 43.9437 184.023C40.0569 182.307 36.5253 179.789 33.5511 176.613C30.5769 173.438 28.2184 169.667 26.6108 165.518C25.0031 161.368 24.1778 156.921 24.182 152.43V69.4168Z" fill="black"/>
</g>
<defs>
<filter id="filter0_d_114_1376" x="0.775757" y="0.152588" width="189.448" height="208.276" filterUnits="userSpaceOnUse" color-interpolation-filters="sRGB">
<feFlood flood-opacity="0" result="BackgroundImageFix"/>
<feColorMatrix in="SourceAlpha" type="matrix" values="0 0 0 0 0 0 0 0 0 0 0 0 0 0 0 0 0 0 127 0" result="hardAlpha"/>
<feOffset dy="4"/>
<feGaussianBlur stdDeviation="2"/>
<feComposite in2="hardAlpha" operator="out"/>
<feColorMatrix type="matrix" values="0 0 0 0 0 0 0 0 0 0 0 0 0 0 0 0 0 0 0.25 0"/>
<feBlend mode="normal" in2="BackgroundImageFix" result="effect1_dropShadow_114_1376"/>
<feBlend mode="normal" in="SourceGraphic" in2="effect1_dropShadow_114_1376" result="shape"/>
</filter>
</defs>
</svg>
