<svg width="187" height="228" viewBox="0 0 187 228" fill="none" xmlns="http://www.w3.org/2000/svg">
<path d="M90.9532 95.7841C86.9201 95.7841 83.1857 94.7969 79.9741 93.1263C78.9285 92.5188 77.7335 93.8097 78.4057 94.8728C79.7672 96.9944 81.6276 98.7373 83.8185 99.9436C86.0094 101.15 88.4616 101.782 90.9532 101.782C93.4447 101.782 95.8969 101.15 98.0878 99.9436C100.279 98.7373 102.139 96.9944 103.501 94.8728C104.173 93.8097 102.978 92.5947 101.932 93.1263C98.7207 94.7969 94.9863 95.7841 90.9532 95.7841ZM62.0566 70.421C63.1769 65.7129 67.3594 62.2197 72.3635 62.2197C77.5169 62.2197 81.8488 65.9407 82.8197 70.9525C82.8765 71.2114 82.8745 71.4799 82.814 71.7379C82.7535 71.9959 82.636 72.2364 82.4705 72.4413C82.3049 72.6463 82.0957 72.8102 81.8585 72.9206C81.6214 73.0311 81.3626 73.0851 81.1019 73.0788H80.5044C80.6538 72.4713 80.7285 71.8638 80.7285 71.2563C80.7285 67.4594 77.741 64.346 73.9319 64.346C72.8866 64.348 71.8557 64.5943 70.9189 65.0659C69.9821 65.5375 69.1645 66.2217 68.5293 67.0658C67.894 67.9098 67.4581 68.8911 67.2553 69.9337C67.0524 70.9763 67.088 72.0524 67.3594 73.0788H64.0731C62.7288 73.0788 61.6831 71.7119 62.0566 70.421ZM119.193 70.421C118.072 65.7129 113.89 62.2197 108.886 62.2197C103.658 62.2197 99.4003 65.9407 98.4294 70.9525C98.2053 72.0916 99.0269 73.0788 100.147 73.0788H100.745C100.597 72.4829 100.521 71.8708 100.521 71.2563C100.511 70.346 100.68 69.4428 101.018 68.5998C101.356 67.7568 101.856 66.991 102.489 66.3473C103.122 65.7036 103.875 65.1949 104.704 64.8513C105.534 64.5076 106.422 64.3358 107.317 64.346C108.363 64.348 109.393 64.5943 110.33 65.0659C111.267 65.5375 112.085 66.2217 112.72 67.0658C113.355 67.9098 113.791 68.8911 113.994 69.9337C114.197 70.9763 114.161 72.0524 113.89 73.0788H117.176C118.52 73.0788 119.491 71.7879 119.193 70.421Z" fill="black"/>
<path d="M77.8082 71.1803C77.8082 68.9781 76.0904 67.2315 73.9244 67.2315C73.4017 67.2287 72.8837 67.332 72.4008 67.5353C72.5829 67.6986 72.7118 67.9144 72.7702 68.1541C72.8287 68.3937 72.814 68.6458 72.728 68.8767C72.642 69.1076 72.4889 69.3064 72.289 69.4466C72.0891 69.5868 71.8519 69.6618 71.6091 69.6615C71.4088 69.6624 71.2115 69.6121 71.0353 69.5153C70.8591 69.4184 70.7097 69.2781 70.6008 69.1072C70.2537 69.6917 70.0611 70.3575 70.0414 71.04C70.0218 71.7225 70.1759 72.3986 70.4888 73.0028H77.3601C77.6588 72.4712 77.8082 71.8637 77.8082 71.1803ZM105.891 67.4973C106.628 67.1863 107.442 67.1158 108.221 67.2956C108.999 67.4753 109.704 67.8965 110.237 68.5009C110.77 69.1053 111.105 69.8631 111.196 70.6695C111.287 71.476 111.13 72.2913 110.745 73.0028H103.874C103.548 72.376 103.394 71.6715 103.428 70.9633C103.462 70.2552 103.684 69.5694 104.068 68.9781C104.147 69.1415 104.261 69.285 104.401 69.3977C104.542 69.5105 104.705 69.5897 104.88 69.6295C105.055 69.6694 105.236 69.6688 105.41 69.6279C105.585 69.587 105.748 69.5068 105.888 69.3931C106.028 69.2795 106.14 69.1354 106.218 68.9715C106.296 68.8075 106.336 68.6279 106.337 68.4459C106.337 68.2639 106.297 68.0842 106.22 67.92C106.143 67.7558 106.03 67.6114 105.891 67.4973ZM64.9993 56.9648C64.5728 56.9654 64.1569 56.8306 63.8095 56.5792C63.4621 56.3278 63.2006 55.9723 63.0615 55.5625C62.9225 55.1526 62.9129 54.7088 63.034 54.2931C63.1551 53.8774 63.4009 53.5106 63.737 53.2438C67.8705 50.313 72.9301 49.054 77.9277 49.7127C78.3237 49.7639 78.6963 49.9318 78.9997 50.1956C79.303 50.4594 79.5239 50.8077 79.635 51.1975C79.7461 51.5874 79.7427 52.0017 79.6251 52.3896C79.5076 52.7775 79.281 53.1219 78.9733 53.3805C78.7655 53.5506 78.5262 53.6765 78.2696 53.7509C78.013 53.8252 77.7444 53.8465 77.4796 53.8134C73.5486 53.3274 69.5761 54.2833 66.2764 56.5091C65.9156 56.8018 65.4683 56.9623 65.0067 56.9648M117.34 56.9648C116.892 56.9642 116.457 56.8149 116.1 56.5395C112.804 54.3062 108.829 53.3496 104.897 53.8437C104.367 53.8907 103.84 53.726 103.427 53.3844C103.015 53.0428 102.749 52.5513 102.687 52.014C102.625 51.4767 102.771 50.936 103.094 50.5064C103.418 50.0767 103.893 49.7921 104.419 49.7127C109.417 49.0702 114.472 50.3307 118.61 53.2514C118.948 53.5171 119.196 53.8842 119.318 54.3007C119.439 54.7172 119.429 55.1621 119.289 55.5725C119.149 55.983 118.885 56.3382 118.535 56.588C118.186 56.8379 117.768 56.9696 117.34 56.9648Z" fill="black"/>
<path d="M7.60938 227.938H171.922C172.31 227.938 172.699 227.908 173.08 227.847C176.676 227.658 180.064 226.074 182.546 223.421C185.028 220.768 186.414 217.247 186.419 213.586V174.63C186.419 171.031 185.164 167.545 182.901 164.788V149.168C183.553 148.628 184.137 148.008 184.641 147.323C186.03 145.432 186.755 143.146 186.852 140.891L186.859 140.724V139.949C186.859 137.58 186.157 135.165 184.693 133.176C183.817 131.954 182.672 130.957 181.349 130.266C180.026 129.575 178.563 129.209 177.075 129.197H153.101C146.504 122.514 138.918 116.923 130.62 112.627C132.935 108.314 134.429 103.59 135.034 98.7153L135.557 90.476C138.383 89.0672 140.839 86.9959 142.723 84.4326C144.608 81.8694 145.866 78.8877 146.395 75.733C146.924 72.5784 146.708 69.3412 145.765 66.2881C144.822 63.2349 143.179 60.4533 140.971 58.1722C141.007 57.4155 141.238 56.6818 141.644 56.046C144.363 52.0502 145.916 47.3537 146.122 42.4989C146.328 37.6441 145.18 32.829 142.809 28.6098C139.791 23.2227 134.916 19.1644 129.126 17.2191C126.561 16.3929 124.365 14.6715 122.927 12.3591C119.758 7.12929 114.859 3.21962 109.109 1.33231C103.36 -0.554999 97.1368 -0.296279 91.5581 2.062C90.5183 2.51254 89.3459 2.52891 88.2943 2.10756C82.7906 -0.212505 76.6598 -0.491108 70.9744 1.3205C65.2891 3.1321 60.4113 6.91856 57.1944 12.0174C55.6983 14.4679 53.4164 16.3186 50.7339 17.2571C47.0837 18.5354 43.7727 20.6528 41.0587 23.4445C38.3447 26.2361 36.3007 29.6269 35.086 33.3528C33.8712 37.0787 33.5183 41.0394 34.0547 44.9267C34.5912 48.8139 36.0025 52.5229 38.179 55.765C38.6688 56.489 38.9459 57.3397 38.9781 58.2178V58.6886C36.9168 60.9779 35.4012 63.7188 34.5486 66.699C33.6961 69.6793 33.5294 72.8191 34.0616 75.8754C34.5938 78.9316 35.8104 81.8224 37.6175 84.3239C39.4246 86.8255 41.7735 88.8707 44.4826 90.3014L45.0652 99.2392C45.6701 103.864 47.1116 108.337 49.3074 112.43C34.5518 120.084 22.1564 131.724 13.4827 146.073C4.80904 160.422 0.192655 176.924 0.140625 193.766V220.344C0.140625 222.358 0.927509 224.29 2.32817 225.714C3.72883 227.138 5.62854 227.938 7.60938 227.938ZM93.6867 212.751V193.425C94.2095 193.364 94.583 193.212 94.6577 193.182H94.6726C94.9067 193.083 95.1317 192.964 95.3448 192.825C95.54 192.702 95.7294 192.57 95.9124 192.43C96.2485 192.179 96.6966 191.822 97.2269 191.405C98.2875 190.539 99.7962 189.286 101.604 187.775C105.226 184.737 110.103 180.591 115.144 176.278C125.167 167.697 135.982 158.311 138.776 155.691C139.305 155.21 139.734 154.626 140.039 153.975C140.344 153.323 140.518 152.616 140.552 151.895C140.585 151.174 140.477 150.453 140.233 149.775C139.99 149.097 139.616 148.475 139.134 147.946L139.044 147.847L135.609 144.384L138.365 143.936L138.477 143.913C139.728 143.637 140.854 142.948 141.681 141.954C141.905 143.853 142.592 145.728 143.765 147.323C144.235 147.976 144.84 148.621 145.557 149.206V177.432C144.244 178.251 143.153 179.39 142.383 180.747C141.614 182.104 141.19 183.635 141.151 185.2C141.091 187.099 141.569 188.845 142.42 190.326C141.578 191.799 141.136 193.473 141.138 195.177C141.141 196.881 141.589 198.553 142.435 200.023C141.586 201.499 141.139 203.179 141.141 204.888C141.142 206.598 141.591 208.277 142.443 209.751C141.92 210.662 141.532 211.68 141.322 212.751H93.6867ZM134.369 132.925L135.071 136.783L130.56 137.519C126.482 138.165 123.958 143.374 127.445 146.86L132.113 151.56C128.043 155.205 118.983 163.065 110.335 170.469C105.375 174.721 100.588 178.784 97.0103 181.783V162.647L117.505 123.251C123.524 125.734 129.186 128.992 134.369 132.925ZM150.33 183.537C150.481 183.557 150.633 183.567 150.785 183.568H167.217C167.371 183.569 167.526 183.559 167.68 183.537H171.474V212.697C171.276 212.703 171.079 212.721 170.884 212.751H149.732C150.191 212.385 150.559 211.914 150.807 211.378C151.055 210.841 151.176 210.252 151.16 209.66C151.144 209.067 150.991 208.486 150.715 207.964C150.439 207.442 150.046 206.993 149.568 206.653C149.282 206.462 149.046 206.204 148.881 205.899C148.715 205.595 148.626 205.254 148.619 204.906C148.619 204.147 148.948 203.577 149.493 203.205C150 202.863 150.416 202.4 150.707 201.857C150.997 201.314 151.153 200.707 151.16 200.089C151.168 199.471 151.026 198.86 150.749 198.31C150.471 197.76 150.066 197.287 149.568 196.933C149.282 196.742 149.046 196.484 148.881 196.179C148.715 195.875 148.626 195.534 148.619 195.186C148.619 194.427 148.948 193.857 149.493 193.485C150.005 193.139 150.424 192.669 150.714 192.118C151.004 191.567 151.156 190.951 151.156 190.326C151.156 189.701 151.004 189.086 150.714 188.535C150.424 187.984 150.005 187.514 149.493 187.167C149.213 186.984 148.985 186.728 148.832 186.427C148.678 186.126 148.605 185.79 148.619 185.451V185.406C148.634 184.601 149.269 183.742 150.3 183.537H150.33ZM175.432 155.319H153.026V143.716H151.383C150.113 143.716 149.067 142.288 149.067 140.557V140.253C149.067 138.355 150.113 136.79 151.383 136.79H177.075C178.345 136.79 179.391 138.218 179.391 139.949V140.557C179.316 142.288 178.27 143.716 177.075 143.716H175.432V155.319ZM97.2568 116.895H83.0662C77.1719 116.909 71.4503 114.872 66.8515 111.123C66.6267 110.8 66.377 110.495 66.1046 110.212C62.7797 106.822 60.601 102.445 59.8832 97.7129L59.0168 84.2568C58.9879 83.7981 58.9179 83.3431 58.8077 82.8975C62.4278 84.9785 66.5168 86.0696 70.6755 86.0641C75.926 86.0641 80.7882 84.3479 84.7541 81.4319L84.2313 83.1784C83.4097 85.8363 85.3516 88.4941 88.115 88.4941H93.9407C96.6294 88.4941 98.5713 85.8363 97.8244 83.1784L97.4808 82.0394C101.462 84.6744 106.257 86.14 111.418 85.9881H111.432C114.771 85.8599 118.044 85.0054 121.03 83.4822C120.978 83.7735 120.943 84.0676 120.925 84.3631L120.141 97.2269C119.494 102.201 117.249 106.82 113.755 110.364C113.355 110.773 113.002 111.226 112.702 111.716C108.236 115.088 102.819 116.904 97.2568 116.895ZM38.7541 138.309C38.6975 139.6 39.1035 140.868 39.8968 141.878C40.7285 142.914 41.8821 143.632 43.1681 143.913L43.2801 143.936L46.0436 144.392L42.593 147.847L42.5183 147.946C42.0361 148.475 41.6623 149.097 41.419 149.775C41.1756 150.453 41.0675 151.174 41.1008 151.895C41.1342 152.616 41.3084 153.323 41.6133 153.975C41.9183 154.626 42.3478 155.21 42.8768 155.691C45.6627 158.311 56.4699 167.689 66.5005 176.278C71.5419 180.591 76.4115 184.737 80.0338 187.775C81.8413 189.294 83.35 190.539 84.418 191.405C84.9408 191.83 85.3889 192.179 85.725 192.43C85.8744 192.544 86.091 192.696 86.2927 192.825C86.5067 192.962 86.7315 193.082 86.9648 193.182H86.9798C87.213 193.277 87.456 193.346 87.7042 193.387V212.751H15.0781L15.0856 193.766C15.109 183.371 17.2212 173.091 21.2925 163.556C25.3638 154.021 31.3084 145.432 38.7615 138.317M63.4009 122.643L63.752 122.499L84.6421 162.662V181.798C81.0571 178.791 76.2771 174.721 71.3178 170.484C64.0017 164.243 56.7393 157.937 49.5315 151.568L54.1994 146.875H54.2069C57.6948 143.382 55.1704 138.172 51.0924 137.535L46.5813 136.79L47.6269 131.057C52.5115 127.64 57.8068 124.815 63.4009 122.643ZM97.2568 124.496C100.035 124.496 102.746 124.147 105.345 123.494C104.231 126.548 102.229 129.185 99.6055 131.054C96.9818 132.923 93.8606 133.937 90.6568 133.959C87.4531 133.981 84.3186 133.011 81.6699 131.179C79.0213 129.346 76.984 126.737 75.8289 123.699C78.1592 124.223 80.5791 124.496 83.0587 124.496H97.2568ZM76.7924 31.6245H86.457C86.9873 31.6245 87.5026 31.989 87.6744 32.437L87.7117 32.5281L87.7491 32.6193C88.4661 34.176 89.3324 35.6188 90.3407 36.9477H70.8996C67.0905 36.9477 63.4532 37.8362 60.2193 39.4308C62.2535 36.9781 64.7914 35.0082 67.6546 33.6596C70.5179 32.3109 73.6369 31.6163 76.7924 31.6245ZM55.2301 57.6103V55.0664C56.5342 51.9389 58.7162 49.2718 61.5032 47.3984C64.2902 45.5251 67.5586 44.5287 70.8996 44.5338H100.916C103.127 45.278 105.48 45.6729 107.9 45.6729H116.631C120.221 47.0945 123.222 49.7271 125.13 53.13L124.563 63.2904H124.607L124.129 71.1196C121.157 75.3189 116.392 78.2121 111.179 78.4096C108.329 78.5024 105.504 77.8536 102.971 76.5246C100.438 75.1956 98.2806 73.2305 96.7041 70.8158L96.6892 70.8006C96.0204 69.7983 95.1203 68.9777 94.0677 68.4105C93.0152 67.8433 91.842 67.5467 90.6507 67.5467C89.4594 67.5467 88.2862 67.8433 87.2336 68.4105C86.181 68.9777 85.281 69.7983 84.6122 70.8006L84.5898 70.8386C83.0723 73.1821 81.007 75.1066 78.5788 76.4398C76.1506 77.7729 73.4351 78.4732 70.6755 78.4779C64.3719 78.4779 58.8599 74.9088 56.0069 69.6464L55.2301 57.6103ZM158.239 162.078H155.147C154.818 162.078 154.542 161.394 154.542 160.559V160.255C154.542 159.42 154.818 158.736 155.147 158.736H158.239C158.575 158.736 158.844 159.42 158.844 160.255V160.559C158.881 161.394 158.568 162.078 158.239 162.078ZM155.155 175.67C154.826 175.67 154.55 174.987 154.55 174.152V173.848C154.55 173.013 154.826 172.329 155.155 172.329H158.247C158.583 172.329 158.852 173.013 158.852 173.848V174.152C158.889 174.987 158.583 175.67 158.254 175.67H155.155Z" fill="black"/>
</svg>
